<?xml version="1.0" encoding="UTF-8"?>
<svg id="Layer_1" xmlns="http://www.w3.org/2000/svg" version="1.1" viewBox="0 0 1000 1172.35">
  <!-- Generator: Adobe Illustrator 29.8.2, SVG Export Plug-In . SVG Version: 2.1.1 Build 3)  -->
  <defs>
    <style>
      .st0 {
        fill: #bb5341;
      }
    </style>
  </defs>
  <g>
    <path class="st0" d="M247.07,1131.59l-3.44,2.78c-1.38-1.65-2.56-2.79-3.54-3.43-1.31-.88-2.86-1.31-4.65-1.31-6.53,0-9.8,4.56-9.8,13.69s3.27,13.69,9.8,13.69c1.78,0,3.33-.44,4.65-1.31.98-.64,2.15-1.78,3.54-3.43l3.38,2.78c-1.82,2.19-3.49,3.74-5,4.65-1.89,1.15-4.07,1.72-6.57,1.72-4.98,0-8.79-2.02-11.42-6.06-1.89-2.86-2.83-6.87-2.83-12.02s.94-9.19,2.83-12.02c2.63-4.04,6.43-6.06,11.42-6.06,2.49,0,4.68.57,6.57,1.72,1.52.91,3.2,2.46,5.05,4.65Z"/>
    <path class="st0" d="M294.85,1143.3c0,5.19-.94,9.19-2.83,12.02-2.66,4.04-6.48,6.06-11.47,6.06s-8.81-2.02-11.47-6.06c-1.89-2.83-2.83-6.84-2.83-12.02s.94-9.19,2.83-12.02c2.69-4.04,6.52-6.06,11.47-6.06s8.81,2.02,11.47,6.06c1.89,2.83,2.83,6.84,2.83,12.02ZM290.41,1143.3c0-4.34-.71-7.56-2.12-9.65-1.79-2.69-4.36-4.04-7.73-4.04s-5.94,1.35-7.73,4.04c-1.41,2.09-2.12,5.3-2.12,9.65s.71,7.53,2.12,9.65c1.78,2.69,4.36,4.04,7.73,4.04s5.94-1.35,7.73-4.04c1.41-2.12,2.12-5.34,2.12-9.65Z"/>
    <path class="st0" d="M340.41,1131.59l-3.44,2.78c-1.38-1.65-2.56-2.79-3.54-3.43-1.31-.88-2.86-1.31-4.65-1.31-6.53,0-9.8,4.56-9.8,13.69s3.27,13.69,9.8,13.69c1.78,0,3.33-.44,4.65-1.31.98-.64,2.15-1.78,3.54-3.43l3.38,2.78c-1.82,2.19-3.49,3.74-5,4.65-1.89,1.15-4.07,1.72-6.57,1.72-4.98,0-8.79-2.02-11.42-6.06-1.89-2.86-2.83-6.87-2.83-12.02s.94-9.19,2.83-12.02c2.63-4.04,6.43-6.06,11.42-6.06,2.49,0,4.68.57,6.57,1.72,1.52.91,3.2,2.46,5.05,4.65Z"/>
    <path class="st0" d="M366.47,1160.93h-4.6v-35.26h4.6v35.26Z"/>
    <path class="st0" d="M414.21,1160.93h-4.19l-16.11-26.42v26.42h-4.44v-35.26h4.19l16.16,26.42v-26.42h4.39v35.26Z"/>
    <path class="st0" d="M465.73,1160.93h-4.8l-3.99-10.2h-14.55l-3.94,10.2h-4.8l13.79-35.26h4.5l13.79,35.26ZM455.32,1146.49l-5.66-14.34-5.61,14.34h11.26Z"/>
    <path class="st0" d="M540.18,1143.3c0,3.4-.13,6.01-.4,7.83-.57,3.87-2.21,6.55-4.9,8.03-2.09,1.18-5.27,1.77-9.55,1.77h-10.86v-35.26h10.86c4.28,0,7.46.59,9.55,1.77,2.69,1.48,4.33,4.16,4.9,8.03.27,1.79.4,4.39.4,7.83ZM535.73,1143.3c0-3.2-.12-5.62-.35-7.27-.37-2.63-1.53-4.36-3.48-5.2-1.21-.54-3.4-.81-6.57-.81h-6.42v26.52h6.42c3.16,0,5.35-.25,6.57-.76,1.95-.84,3.11-2.58,3.48-5.2.24-1.68.35-4.11.35-7.27Z"/>
    <path class="st0" d="M584.83,1160.93h-22.93v-35.26h22.93v4.34h-18.54v10.71h16.21v4.04h-16.21v11.82h18.54v4.34Z"/>
    <path class="st0" d="M627.15,1160.93h-20.86v-35.26h4.39v30.91h16.46v4.34Z"/>
    <path class="st0" d="M701.86,1143.3c0,3.4-.13,6.01-.4,7.83-.57,3.87-2.21,6.55-4.9,8.03-2.09,1.18-5.27,1.77-9.55,1.77h-10.86v-35.26h10.86c4.28,0,7.46.59,9.55,1.77,2.69,1.48,4.33,4.16,4.9,8.03.27,1.79.4,4.39.4,7.83ZM697.41,1143.3c0-3.2-.12-5.62-.35-7.27-.37-2.63-1.53-4.36-3.48-5.2-1.21-.54-3.4-.81-6.57-.81h-6.41v26.52h6.41c3.16,0,5.35-.25,6.57-.76,1.95-.84,3.11-2.58,3.48-5.2.24-1.68.35-4.11.35-7.27Z"/>
    <path class="st0" d="M732.06,1114.41l-5.3,7.37h-3.69l4.24-7.37h4.75ZM728.73,1160.93h-4.6v-35.26h4.6v35.26Z"/>
    <path class="st0" d="M780.55,1160.93h-4.8l-3.99-10.2h-14.55l-3.94,10.2h-4.8l13.79-35.26h4.5l13.79,35.26ZM770.15,1146.49l-5.66-14.34-5.61,14.34h11.26Z"/>
  </g>
  <g>
    <path class="st0" d="M50.11,961.08c21.87,0,35.68,4.34,45.3,13.5,7.6,7.45,13.19,18.31,13.19,33.2,0,18.15-7.45,32.89-19.39,41.89-11.79,8.84-26.84,12.26-45.92,12.26H6.98v-4.34c13.34-1.24,13.96-2.33,13.96-15.05v-61.9c0-13.34-1.86-13.96-13.96-15.2v-4.34h43.13ZM34.44,1041.28c0,11.63,4.96,14.89,16.6,14.89,27.92,0,42.2-19.08,42.2-46.23,0-16.91-5.74-29.79-18-37.23-7.14-4.5-16.13-6.21-26.53-6.21-6.98,0-10.7.93-12.26,2.17-1.4.93-2.02,2.64-2.02,8.69v63.92Z"/>
    <path class="st0" d="M204.16,1037.25c-.93,4.03-5.12,20.01-6.67,24.67h-75.4v-4.34c14.43-1.09,15.51-2.48,15.51-15.2v-61.28c0-13.81-1.71-14.58-13.34-15.67v-4.34h47.47c14.58,0,20.63-.15,22.49-.31.16,3.88.78,15.51,1.4,23.74l-4.65.78c-1.4-5.27-2.95-8.53-4.65-11.79-2.48-5.12-6.05-6.21-15.36-6.21h-14.74c-4.81,0-5.12.46-5.12,4.96v34.29h17.22c11.64,0,12.41-2.33,14.27-12.88h4.81v31.96h-4.81c-2.02-11.17-3.26-12.72-14.43-12.72h-17.06v30.87c0,10.86,3.41,11.79,11.17,11.95h14.43c9.46,0,11.01-1.4,14.43-5.43,2.95-3.26,6.21-9.62,8.38-14.27l4.65,1.24Z"/>
    <path class="st0" d="M329.04,1036.16c-.93,4.81-5.58,20.94-7.14,25.75h-72.14v-4.34c14.12-1.4,15.36-2.17,15.36-15.36v-61.59c0-13.19-1.55-13.96-13.96-15.2v-4.34h41.58v4.34c-12.41,1.24-14.12,1.86-14.12,15.2v63.14c0,9.46,1.24,11.64,10.08,11.79.16,0,11.33.16,12.26.16,7.91,0,10.24-.93,13.81-4.81,3.88-4.03,7.14-10.24,9.46-15.98l4.81,1.24Z"/>
    <path class="st0" d="M401.18,1061.92v-4.34c10.08-1.24,11.32-2.79,9.15-8.69-2.02-6.05-5.12-13.81-8.38-23.58h-33.51c-2.48,6.98-4.81,13.03-6.98,19.39-3.41,10.08-1.24,11.32,11.48,12.88v4.34h-35.84v-4.34c9.77-1.24,12.26-2.33,17.69-16.29l32.11-81.45,4.96-.93c9.77,26.53,20.48,55.85,30.25,82.69,4.96,13.5,6.36,14.74,17.38,15.98v4.34h-38.32ZM385.66,979.23c-4.96,13.34-10.24,27.46-14.89,39.71h29.01l-14.12-39.71Z"/>
    <path class="st0" d="M565.93,1061.92v-4.34c12.72-1.24,13.19-2.17,13.03-18.77l.15-63.3c-12.72,28.39-33.2,72.76-38.63,86.41h-4.03c-5.27-14.12-22.8-56.78-34.6-84.86-2.64,54.3-2.79,66.55-2.79,69.5.16,8.69,4.03,9.93,14.58,11.01v4.34h-36.77v-4.34c9-.93,12.72-2.79,13.96-11.17.93-6.83,1.09-12.41,5.12-69.04.62-8.07-.93-10.71-14.58-11.95v-4.34h26.99l34.29,78.65,36.77-78.65h27.15v4.34c-13.34,1.55-15.05,2.95-14.74,13.81l.62,59.57c.62,16.6,1.09,17.38,14.74,18.77v4.34h-41.27Z"/>
    <path class="st0" d="M671.58,958.91c26.53,0,50.26,20.32,50.26,51.2,0,33.35-22.65,54.14-51.19,54.14s-51.51-22.65-51.51-51.82,19.7-53.52,52.44-53.52ZM668.48,964.65c-17.38,0-33.2,14.58-33.2,43.59s15.82,50.11,37.85,50.11c18.77,0,32.89-13.96,32.89-43.9,0-32.58-17.22-49.8-37.54-49.8Z"/>
    <path class="st0" d="M844.09,965.42c-9.93,1.09-13.19,2.64-13.65,9.77-.15,4.96-.46,11.48-.46,25.91v62.21h-5.89l-66.4-81.14v38.78c0,13.96.46,20.94.78,25.44.31,7.91,4.19,10.24,15.36,11.17v4.34h-37.7v-4.34c9.62-.78,13.34-3.1,13.96-10.7.46-4.96.78-11.95.78-26.06v-39.56c0-4.34-.31-6.83-3.1-10.24-2.95-3.88-6.21-4.81-13.81-5.58v-4.34h23.27l65.78,78.03v-38.01c0-14.43-.31-21.1-.78-25.75-.46-6.98-4.03-9.15-16.44-9.93v-4.34h38.32v4.34Z"/>
    <path class="st0" d="M895.91,965.42c-12.1,1.4-13.34,2.33-13.34,15.36v57.4c0,20.48-3.26,31.18-13.65,40.49-5.12,4.65-10.24,7.14-14.43,9l-2.48-4.65c8.84-4.34,13.81-11.48,15.51-20.48,1.4-7.45,1.55-16.44,1.55-29.48v-52.28c0-13.03-1.4-14.12-14.12-15.36v-4.34h40.96v4.34Z"/>
    <path class="st0" d="M961.68,1061.92v-4.34c10.08-1.24,11.33-2.79,9.15-8.69-2.02-6.05-5.12-13.81-8.38-23.58h-33.51c-2.48,6.98-4.81,13.03-6.98,19.39-3.41,10.08-1.24,11.32,11.48,12.88v4.34h-35.84v-4.34c9.77-1.24,12.26-2.33,17.69-16.29l32.11-81.45,4.96-.93c9.77,26.53,20.48,55.85,30.25,82.69,4.96,13.5,6.36,14.74,17.38,15.98v4.34h-38.32ZM946.17,979.23c-4.96,13.34-10.24,27.46-14.89,39.71h29.01l-14.12-39.71Z"/>
  </g>
  <g>
    <path class="st0" d="M774.18,676.99c-1.99,0-3.61-1.59-3.65-3.58-3.06-161.78-28.9-290.74-76.81-383.29-30.95-59.78-70.82-104.06-121.9-135.36-65.71-40.26-137.21-.35-137.93.06-107.74,59.5-157.51,197.06-180.3,301.99-24.8,114.16-23.9,215.49-23.89,216.5.02,2.02-1.59,3.67-3.61,3.69h-.04c-2,0-3.63-1.6-3.65-3.61-.01-1.02-.92-103.06,24.03-218,23.11-106.46,73.77-246.12,183.89-306.94.71-.4,75.87-42.48,145.32.08,52.25,32.02,93,77.24,124.57,138.23,48.43,93.56,74.55,223.6,77.63,386.51.04,2.02-1.56,3.68-3.58,3.72h-.07Z"/>
    <path class="st0" d="M547.96,215.8c-45.12-24.17-91.69-1.03-93.65-.04-1.8.91-2.51,3.11-1.6,4.91.64,1.27,1.93,2,3.26,2,.56,0,1.12-.13,1.65-.4.11-.05,2.74-1.36,7.22-3,4.44,5.47,17.04,18.85,34.68,19.76.63.03,1.26.05,1.89.05,12.71,0,25.11-6.7,36.94-19.79,2.06.89,4.11,1.85,6.16,2.95,1.77.95,3.99.28,4.94-1.49.95-1.78.29-3.99-1.49-4.94ZM499.94,231.74c-12.73-.64-22.7-9.59-27.56-14.94,6.83-1.98,15.61-3.86,25.47-4.4-.17.8-.29,1.64-.29,2.52,0,4.54,2.45,8.23,5.48,8.23s5.48-3.68,5.48-8.23c0-.89-.12-1.74-.29-2.54,7.32.37,15.01,1.61,22.78,4.13-10.23,10.6-20.65,15.73-31.06,15.24Z"/>
    <g>
      <path class="st0" d="M500.81,0c-1.61,0-2.92,1.31-2.92,2.92v86.14c0,1.61,1.31,2.92,2.92,2.92s2.92-1.31,2.92-2.92V2.92C503.73,1.31,502.42,0,500.81,0Z"/>
      <path class="st0" d="M558.6,16.31c-1.42-.78-3.19-.25-3.96,1.16l-38.28,70.19c-.77,1.42-.25,3.19,1.17,3.96.44.24.92.36,1.4.36,1.04,0,2.04-.55,2.57-1.52l38.28-70.19c.77-1.42.25-3.19-1.17-3.96Z"/>
      <path class="st0" d="M446.59,17.47c-.78-1.42-2.55-1.94-3.96-1.16-1.42.77-1.94,2.55-1.17,3.96l38.28,70.19c.53.97,1.53,1.52,2.57,1.52.47,0,.95-.11,1.4-.36,1.42-.77,1.94-2.55,1.17-3.96l-38.28-70.19Z"/>
      <path class="st0" d="M411,59.2c-1.34-.9-3.15-.54-4.05.79-.9,1.34-.54,3.15.8,4.05l53.89,36.21c.5.34,1.06.5,1.62.5.94,0,1.86-.45,2.43-1.29.9-1.34.54-3.15-.8-4.05l-53.89-36.21Z"/>
      <path class="st0" d="M592.3,60c-.9-1.34-2.71-1.7-4.05-.8l-53.89,36.21c-1.34.9-1.69,2.71-.8,4.05.56.84,1.49,1.29,2.43,1.29.56,0,1.12-.16,1.62-.5l53.89-36.21c1.34-.9,1.69-2.71.8-4.05Z"/>
    </g>
    <path class="st0" d="M695.38,89.06c0-2.22-1.8-4.03-4.02-4.03s-4.02,1.8-4.02,4.03c0,26.58-5.62,51.86-15.66,74.77-31.88-.69-57.62-26.78-57.62-58.83,0-2.12-1.72-3.84-3.84-3.84s-3.84,1.72-3.84,3.84c0,35.1,27.33,63.88,61.82,66.33-13.7,27.81-34.12,51.72-59.13,69.64-22.23-9.61-36.4-31.82-35.49-56.2.08-2.12-1.57-3.9-3.69-3.98-2.13-.06-3.9,1.57-3.98,3.69-.97,25.95,13.19,49.72,35.82,61.48-29.2,18.9-63.95,29.93-101.24,29.93s-71.27-10.78-100.26-29.3c23.34-11.53,38.02-35.7,37.03-62.11-.08-2.12-1.8-3.75-3.98-3.69-2.12.08-3.77,1.86-3.69,3.98.93,24.88-13.85,47.51-36.86,56.78-25.37-17.98-46.08-42.09-59.93-70.19,34.85-2.08,62.58-31.01,62.58-66.37,0-2.12-1.72-3.84-3.84-3.84s-3.84,1.72-3.84,3.84c0,32.3-26.15,58.59-58.39,58.87-10.06-22.92-15.68-48.22-15.68-74.81,0-2.22-1.8-4.03-4.02-4.03s-4.02,1.8-4.02,4.03c0,107.46,87.43,194.89,194.89,194.89,41.07,0,79.18-12.8,110.64-34.57.99-.22,1.86-.82,2.41-1.72,49.49-35.38,81.84-93.27,81.84-158.6Z"/>
    <path class="st0" d="M499.02,706.58c-5.35,0-8.58-.55-8.99-.63-51.62-6.97-95.25-55.78-125.96-141.11-22.93-63.71-30.88-126.23-30.96-126.86-.29-2.33,1.36-4.45,3.69-4.74,2.36-.27,4.45,1.37,4.74,3.69.31,2.45,31.82,244.68,149.81,260.62.48.08,31.51,5.2,66.84-20.92,64.28-47.51,90-156.57,100.25-239.7.29-2.33,2.46-4.01,4.74-3.7,2.33.29,3.98,2.41,3.7,4.74-10.48,84.96-37.03,196.57-103.96,245.74-26.91,19.77-51.3,22.87-63.91,22.87Z"/>
    <path class="st0" d="M509.83,600.8h-23.94c-2.22,0-4.02-1.8-4.02-4.03s1.8-4.03,4.02-4.03h19.91v-90.26c0-2.22,1.8-4.03,4.02-4.03s4.02,1.8,4.02,4.03v94.29c0,2.22-1.8,4.03-4.02,4.03Z"/>
    <path class="st0" d="M496.18,657.75c-8.6,0-15.01-1.03-15.65-1.13-1.99-.33-3.33-2.21-3-4.2.33-1.99,2.2-3.34,4.2-3,.35.06,35.58,5.67,50.6-10.29,1.38-1.47,3.69-1.54,5.16-.16,1.47,1.38,1.54,3.69.16,5.16-10.63,11.3-28.52,13.63-41.47,13.63Z"/>
    <path class="st0" d="M415.7,685.36c-9.26-1.17-13.18,7.49-18.3,13.46-3.4,3.87-7.14,7.32-10.21,11.39-2.8,3.67-4.67,8.84-8.24,11.91-.3-30.17-3.95-59.58-8.24-89.47-.95-6.64-2-15.71-9.99-17.26-2.62-.47-5.32-.07-7.7,1.13-2.38,1.2-4.29,3.15-5.46,5.54-6.42,13.09-4.6,33.74-5.17,47.79-.15,3.82-.22,7.62-.35,11.44-5.39-3.17-12.91-3.87-17.48-.57-2.56,2.01-4.33,4.85-4.99,8.04-5.39-3.17-12.94-3.89-17.48-.55h0c-3.06,2.56-5.02,6.2-5.47,10.16-5.49-3.02-12.94-3.6-17.33,0-7.49,6.09-5.24,20.73-3.72,28.89.58,2.77,1.49,5.46,2.72,8.02,1.72,14.18,6.59,32.76,15.63,44,11.06,13.73,34.76,15.23,50.92,14.38,18.9-.37,29.72-6.74,39.53-22.62,11.06-17.85,23.32-34.96,34.81-52.44,5.42-8.54,13.16-31.14-3.47-33.24h0ZM331.35,685.36c3.4-1.1,8.89,1.75,10.44,4.8-.22,9.04-.22,29.67-.22,30.44-.15,2.9-.95,12.34-6.04,12.24-5.59,0-8.34-16.18-8.79-20.13-.59-4.97-.91-9.98-.97-14.98-.03-4.1.5-10.74,5.59-12.31v-.05ZM308.88,692.86c2.95-.95,7.49,1.1,9.66,3.65h0c.1,6.49.75,12.95,1.92,19.33,0,.4,0,14.78-2.07,19.5-6.37,13.76-12.88-7.19-13.71-12.49-.89-5.85-1.35-11.76-1.37-17.68-.05-4.04.48-10.69,5.57-12.26v-.05ZM284.4,705.57c3.52-2.9,8.67-3.57,11.64.67h0c.18,4.89.7,9.76,1.55,14.58,0,4.62,0,14.83-2.8,17.75-5.54,5.74-11.39-7.22-12.49-10.96-1.05-4.69-1.52-9.5-1.4-14.31,0-4.02,0-4.84,3.47-7.72l.03-.02ZM418.97,704.94c-1.75,6.99-8.17,14.03-12.09,19.98-8.09,12.19-16.48,24.17-24.37,36.48-3.62,5.64-6.82,12.66-11.66,17.48-7.09,6.72-16.81,7.99-26.1,7.99-14.98.77-37.76-.22-47.07-14.01h0c-5.07-8.14-8.7-17.08-10.74-26.45,1.81,1.28,4.02,1.84,6.22,1.6,4.99-.67,7.67-4.99,9.19-10.39,3.02,6.24,7.49,11.54,13.73,10.34,6.24-1.2,8.79-8.04,9.99-15.28,2.87,4.99,6.79,8.54,11.96,7.84,11.79-1.55,9.99-29.74,9.99-29.97-.28-23.89.71-47.78,2.97-71.57.3-2.67.25-12.99,2.75-14.98,4.32-3.37,9.16,2.5,9.99,6.77,1.07,6.12,1.55,12.36,2.5,18.5,4.03,25.85,6.07,51.97,6.12,78.14-.04,1.06.42,2.07,1.24,2.73.82.67,1.9.91,2.93.66,10.46-2.85,16.38-16.88,23.1-24.45,1.97-2.22,5.27-8.29,7.82-9.51,8.06-3.89,13.88-1.47,11.54,8.09h0Z"/>
    <path class="st0" d="M324.07,568.04h-13.74l9.72-9.72c1.14-1.14,1.13-2.98,0-4.12-1.14-1.13-2.98-1.13-4.12,0l-9.72,9.72v-13.74c0-1.61-1.3-2.91-2.91-2.91s-2.91,1.3-2.91,2.91v13.74l-9.72-9.72c-1.13-1.13-2.98-1.14-4.12,0-1.14,1.14-1.14,2.98,0,4.12l9.72,9.72h-13.74c-1.61,0-2.91,1.3-2.91,2.91s1.3,2.91,2.91,2.91h13.74l-9.72,9.72c-1.14,1.14-1.13,2.98,0,4.12,1.13,1.13,2.98,1.13,4.12,0l9.72-9.72v13.74c0,1.61,1.3,2.91,2.91,2.91s2.91-1.3,2.91-2.91v-13.74l9.72,9.72c1.14,1.13,2.98,1.14,4.12,0,1.14-1.14,1.14-2.98,0-4.12l-9.72-9.72h13.74c1.61,0,2.91-1.3,2.91-2.91s-1.3-2.91-2.91-2.91Z"/>
    <path class="st0" d="M482.44,497.69c-.23,20.84-12.27,40.7-32.22,48.13-19.85,7.39-42.44-.07-55.53-16.29-13.46-16.67-15.48-40.56-4.83-59.19,10.37-18.15,31.44-28.16,52.02-23.53,23.53,5.29,40.3,26.92,40.57,50.87.06,5.15,10.7,3.3,10.65-.99-.28-24.75-15.69-46.69-39.2-54.86-23.66-8.22-51.53-.59-67.68,18.55-15.92,18.88-18.4,46.1-5.63,67.34,13.03,21.68,39.07,31.62,63.49,26.81,27.53-5.43,48.7-29.6,49.02-57.84.06-5.14-10.6-3.32-10.65.99Z"/>
    <path class="st0" d="M436.86,479.95c-1.63,0-3.22-.17-4.78-.52-9.65-2.15-14.17-10.25-14.36-10.59-.92-1.68-.3-3.79,1.38-4.71,1.68-.92,3.78-.3,4.7,1.36.07.13,3.35,5.77,9.88,7.19,5.59,1.2,12.1-.87,19.37-6.18,1.55-1.13,3.72-.79,4.85.75,1.13,1.55.79,3.72-.75,4.85-7.15,5.23-13.95,7.86-20.27,7.86Z"/>
    <ellipse class="st0" cx="437.52" cy="485.85" rx="9.59" ry="11.7"/>
    <path class="st0" d="M505.73,499.23c.28,24.75,15.69,46.69,39.2,54.86,23.66,8.22,51.53.59,67.68-18.55,15.92-18.88,18.4-46.1,5.63-67.34-13.03-21.68-39.07-31.62-63.49-26.81-27.53,5.43-48.7,29.6-49.02,57.84-.06,5.14,10.6,3.32,10.65-.99.23-20.84,12.27-40.7,32.22-48.13,19.85-7.39,42.44.07,55.53,16.29,13.46,16.67,15.48,40.56,4.83,59.19-10.37,18.15-31.44,28.16-52.02,23.53-23.53-5.29-40.3-26.92-40.57-50.87-.06-5.15-10.7-3.3-10.65.99Z"/>
    <g>
      <path class="st0" d="M519.27,469.9c-5.21.23-10.17.41-14.75.55-3.58.11-7.19.16-10.82.16-4.27,0-8.59-.1-12.94-.24,1.73,3.1,3.17,6.38,4.29,9.81,6.65.15,13.24.17,19.71-.02,3.07-.09,6.33-.2,9.69-.33,1.28-3.49,2.89-6.81,4.81-9.92Z"/>
      <path class="st0" d="M640.61,362.67c-9.5-9.5-20.5-17.1-30.99-21.4-10.99-4.51-22.08-3.65-29.67,2.3l-.71.56-.61-.67c-8.09-8.88-17.75-16.04-27.93-20.69-10.76-4.92-22.12-6.66-32.83-5.02-4.16.64-8.48,2.84-12.65,4.96-4.8,2.46-8.91,4.43-11.2,4.1-4.23-.66-8.04-1.56-11.73-2.43-11.56-2.73-22.48-5.31-38.01,2.05-3.79,1.8-7.24,4.41-10.57,6.93-5.21,3.94-10.09,7.64-15.21,7.49l-3.51-.14c-3.04-.12-6.1-.24-9.18-.24-7.23,0-14.6.67-22.07,3.57-27.82,10.83-56.76,38.75-54.56,74.49.69,11.22,5.68,22,14.05,30.37,4.42,4.42,9.55,7.96,15.24,10.52,8.57,3.85,18.43,6.21,27.88,8.1,1.98-3.08,4.24-5.96,6.77-8.58-10.68-2.03-21.49-4.28-30.62-8.39-4.61-2.07-8.78-4.94-12.37-8.54-6.7-6.7-10.69-15.27-11.24-24.12-1.9-30.86,23.73-55.22,48.34-64.8,8.78-3.41,17.37-3.07,27.33-2.67l3.58.14c1.34.05,2.76-.08,4.44-.39l.39-.07.33.22c11.96,7.99,21.56,30.77,24.11,44.66.37-.02.67-.17.95-.44,2.21-2.16,2.09-11.2-.31-24.17l-.06-.32c-1.39-7.66-5.21-18.28-11.74-25.14l-.76-.8.9-.65c1.09-.78,2.16-1.58,3.19-2.36,3.07-2.33,5.97-4.52,8.86-5.9,12.44-5.89,20.48-4,31.62-1.37,3.46.81,7.38,1.74,11.8,2.45l.42.18c12.17,9.06,23.49,33.75,25.96,46.76.47-.02.88-.2,1.23-.55,3.3-3.2,1.88-17.72.99-22.64-1.21-6.66-4.63-18.82-13.9-25.56l-1.3-.94,1.44-.71c.97-.48,1.95-.97,2.91-1.46,3.51-1.79,7.11-3.63,9.71-4.03,8.83-1.35,18.28.12,27.34,4.25,7.43,3.4,14.79,8.52,21.26,14.81,11.12,13.57,20.88,42.53,23.1,54.51.65-.01,1.23-.28,1.79-.83,3.96-3.85,4.32-19.04,3.84-21.66-1.81-9.94-3.83-18.78-10.22-26.27l-.7-.82.89-.61c5.65-3.87,13.67-2.78,19.29-.48,9.33,3.83,19.22,10.69,27.84,19.3,16.86,16.86,26.15,37.07,24.85,54.06-1.49,19.47-14.37,26.44-37.61,32.5-5.26,1.37-10.55,2.61-15.85,3.73,2.56,2.56,4.85,5.38,6.87,8.41,3.8-.86,7.6-1.75,11.39-2.74,20.61-5.38,42.77-13.45,44.89-41.21h0c1.5-19.78-8.83-42.82-27.65-61.63Z"/>
    </g>
    <path class="st0" d="M561.96,481.5c-6.32,0-13.12-2.63-20.27-7.86-1.55-1.13-1.88-3.3-.75-4.85,1.13-1.54,3.29-1.89,4.85-.75,7.27,5.31,13.76,7.38,19.37,6.18,6.57-1.43,9.85-7.13,9.88-7.19.94-1.66,3.04-2.26,4.71-1.34,1.67.92,2.28,3.01,1.37,4.69-.19.34-4.71,8.44-14.36,10.59-1.56.35-3.16.52-4.78.52Z"/>
    <ellipse class="st0" cx="561.3" cy="487.4" rx="9.59" ry="11.7"/>
    <path class="st0" d="M592.86,647.85c-48.68,63.67-102.06,53.92-102.06,53.92-32.87-4.44-59.13-25.49-79.98-53.92h-38.41c3.38,24.91,6.01,49.62,6.26,74.86,3.53-3.04,5.89-2.8,8.66-6.43,3.04-4.02,6.25-12.78,9.61-16.61,5.07-5.9,8.95-14.47,18.12-13.31h0c16.47,2.07,8.8,24.42,3.44,32.87-11.37,17.29-23.51,34.2-34.46,51.86-9.72,15.71-20.42,22-39.14,22.37-15.99.84-39.45-.64-50.41-14.23-8.95-11.11-13.77-29.49-15.48-43.51-1.22-2.52-2.12-5.19-2.7-7.93-1.51-8.08-3.73-22.55,3.68-28.57,4.35-3.56,11.72-2.99,17.16,0,.45-3.92,2.39-7.52,5.42-10.05h0c4.5-3.31,11.96-2.59,17.3.54.66-3.15,2.41-5.97,4.94-7.95,4.52-3.26,11.96-2.57,17.3.57.12-3.78,4.43-16.87,4.58-20.64.2-4.9-.42-9.44-1.03-13.84h-143.91c29.48,137.66,151.78,240.9,298.24,240.9s268.76-103.24,298.24-240.9h-205.39ZM694.16,692.26c7.77-.39,14.35,5,12.48,12.83h0c-1.55,6.52-9.14,9.47-14.88,5.84-4.2-2.67-5.77-4.68-5.63-9.35-.06-5.14,4.4-9.13,8.03-9.31ZM677.48,671.13h0c5.46-1.14,10.03,3.1,9.05,8.4-1.55,8.47-14.53,8.4-15.28-.07-.35-3.94,2.32-7.51,6.23-8.33ZM661.24,698.07c4.65-2.53,11.05.15,12.59,5.27,2.4,7.96-6.59,13.72-13.92,8.92h0c-5.32-3.49-4.62-10.95,1.32-14.19ZM629.76,824.14c-.1.15-.15.31-.28.44-.62.66-1.47.99-2.3.99,0,0,0,0,0,0-17.2,9.41-35.53,16.89-54.7,22.18-.28.13-.56.2-.85.25-21.94,5.98-44.95,9.14-68.58,9.14-43.7,0-86.87-11.14-124.85-32.22-1.5-.83-2.04-2.72-1.21-4.22.83-1.5,2.72-2.04,4.22-1.21,37.05,20.57,79.18,31.44,121.83,31.44,21.5,0,42.47-2.71,62.57-7.8-8.78-11.09-15.91-23.32-21.19-36.45-.66-1.63.13-3.48,1.77-4.14,1.62-.65,3.48.13,4.14,1.76,5.4,13.42,12.85,25.84,22.07,37.01,17.24-4.89,33.79-11.54,49.39-19.86-15.86-16.07-27.99-35.64-35.11-56.97-.56-1.67.35-3.47,2.01-4.03,1.67-.55,3.46.34,4.03,2.01,7,20.97,19.06,40.19,34.86,55.79,14.82-8.42,28.74-18.34,41.55-29.62-.15-.1-.31-.16-.45-.28-24.35-23-39.84-52.71-44.78-85.91-.5-3.35-.89-6.74-1.16-10.07-.14-1.75,1.16-3.29,2.91-3.43,1.77-.17,3.29,1.17,3.43,2.92.26,3.19.63,6.44,1.11,9.64,4.73,31.78,19.55,60.21,42.85,82.22.27.25.45.56.61.87,27.27-25.21,49.15-56.74,63.45-93.11.63-1.6,2.45-2.38,4.03-1.76,1.6.63,2.38,2.43,1.75,4.03-22.32,56.77-62.7,102.03-113.12,130.39Z"/>
    <path class="st0" d="M337.33,437.46"/>
    <path class="st0" d="M337.33,437.46"/>
  </g>
</svg>